:version 1.10
:name ASF
:units
  mass 1
  length 1
  angle deg
:documentation
  ASF file generated by Kaydara
:root
  axis xyz
  order  tx ty tz rx ry rz
  position 0 0 0
  orientation 0 0 0
:bonedata
  begin
    id 1
    name RightUpLegDummy
    direction -1 2.30186e-007 8.31532e-007
    length 4.46685
    axis 0 0 0 xyz
  end
  begin
    id 2
    name RightUpLeg
    direction -2.30187e-007 -1 1.24343e-010
    length 16.4045
    axis -3.49089 -0.000906625 0.000286804 xyz
    dof rx ry rz
  end
  begin
    id 3
    name RightLeg
    direction -2.30181e-007 -1 -4.17157e-009
    length 17.5097
    axis 3.68512 0.0193738 -0.131023 xyz
    dof rx ry rz
  end
  begin
    id 4
    name RightFoot
    direction 8.31421e-007 -4.51202e-011 1
    length 6.49508
    axis 4.81691e-005 -0.120479 -0.188788 xyz
    dof rx ry rz
  end
  begin
    id 5
    name RightToes
    direction 0.00124746 -0.014064 0.9999
    length 3.85082
    axis 0.000481921 0.542163 -0.142578 xyz
    dof rx ry rz
  end
  begin
    id 6
    name SpineDummy
    direction 0.0717043 0.9409 -0.331007
    length 10.0032
    axis 0 0 0 xyz
  end
  begin
    id 7
    name Spine
    direction 2.30186e-007 1 4.58806e-011
    length 9.84055
    axis -0.001389 0.000121418 2.40972e-006 xyz
    dof rx ry rz
  end
  begin
    id 8
    name Spine1
    direction 0 0 0
    length 0
    axis -0.001389 0.000121451 1.30017e-006 xyz
    dof rx ry rz
  end
  begin
    id 9
    name HEadDummy
    direction -0.00347485 0.950688 -0.310128
    length 8.00997
    axis -0.001389 0.000121451 1.30017e-006 xyz
  end
  begin
    id 10
    name HEad
    direction -0.0222688 0.980941 0.193023
    length 5.12695
    axis -0.001389 0.000121451 1.30017e-006 xyz
    dof rx ry rz
  end
  begin
    id 11
    name LeftShoulder1Dummy
    direction 0.988871 0.146793 -0.0242004
    length 3.5792
    axis -0.001389 0.000121451 1.30017e-006 xyz
  end
  begin
    id 12
    name LeftShoulder1
    direction 0.993832 0.108932 0.020779
    length 4.16823
    axis -0.001389 0.000121451 1.30017e-006 xyz
    dof rx ry rz
  end
  begin
    id 13
    name LeftArm
    direction 1 3.44807e-006 -8.31404e-007
    length 9.91437
    axis -23.1894 0.134784 0.967509 xyz
    dof rx ry rz
  end
  begin
    id 14
    name LeftForeArm
    direction 1 3.44842e-006 -8.31581e-007
    length 9.08575
    axis -9.91835 -0.06569 -0.177793 xyz
    dof rx ry rz
  end
  begin
    id 15
    name LeftHand
    direction 0.992938 -0.0411636 0.11126
    length 5.32135
    axis -0.00960232 -0.00340091 0.185173 xyz
    dof rx ry rz
  end
  begin
    id 16
    name RightShoulderDummy
    direction -0.988871 0.146793 -0.0241962
    length 3.5792
    axis -0.001389 0.000121451 1.30017e-006 xyz
  end
  begin
    id 17
    name RightShoulder
    direction -0.993832 0.108933 0.0207785
    length 4.16823
    axis 0.215806 0.000203643 -0.0068026 xyz
    dof rx ry rz
  end
  begin
    id 18
    name RightArm
    direction -1 3.90912e-006 8.31284e-007
    length 9.91437
    axis -23.2009 -0.134239 -0.964101 xyz
    dof rx ry rz
  end
  begin
    id 19
    name RightForeArm
    direction -1 3.90882e-006 8.31502e-007
    length 9.08575
    axis -9.92322 0.0658061 0.178867 xyz
    dof rx ry rz
  end
  begin
    id 20
    name RightHand
    direction -0.992843 -0.0414603 0.112003
    length 5.28593
    axis -0.00960638 0.00330671 -0.185228 xyz
    dof rx ry rz
  end
  begin
    id 21
    name LeftUpLegDummy
    direction 1 -2.30186e-007 -8.31532e-007
    length 4.46685
    axis 0 0 0 xyz
  end
  begin
    id 22
    name LeftUpLeg
    direction -2.30187e-007 -1 6.00931e-010
    length 16.4045
    axis -3.48766 0.00143442 -0.000524262 xyz
    dof rx ry rz
  end
  begin
    id 23
    name LeftLeg
    direction -2.30187e-007 -1 1.6669e-009
    length 17.5097
    axis 3.68178 -0.00654042 -0.000285133 xyz
    dof rx ry rz
  end
  begin
    id 24
    name LeftFoot
    direction 8.31532e-007 -4.54478e-011 1
    length 6.49508
    axis 1.87233e-006 4.66016e-005 -8.6538e-006 xyz
    dof rx ry rz
  end
  begin
    id 25
    name LeftToes
    direction 0.00818058 -0.00485161 0.999955
    length 3.85048
    axis 1.06247e-005 4.65869e-005 -8.65513e-006 xyz
    dof rx ry rz
  end
:hierarchy
  begin
    root RightUpLegDummy SpineDummy LeftUpLegDummy
    RightUpLegDummy RightUpLeg
    RightUpLeg RightLeg
    RightLeg RightFoot
    RightFoot RightToes
    SpineDummy Spine
    Spine Spine1
    Spine1 HEadDummy LeftShoulder1Dummy RightShoulderDummy
    HEadDummy HEad
    LeftShoulder1Dummy LeftShoulder1
    LeftShoulder1 LeftArm
    LeftArm LeftForeArm
    LeftForeArm LeftHand
    RightShoulderDummy RightShoulder
    RightShoulder RightArm
    RightArm RightForeArm
    RightForeArm RightHand
    LeftUpLegDummy LeftUpLeg
    LeftUpLeg LeftLeg
    LeftLeg LeftFoot
    LeftFoot LeftToes
  end

:SAMPLES-PER-SECOND 30
:FULLY-SPECIFIED
:DEGREES
1
root  -63.0737 32.908 23.4185 6.99051 51.2302 5.84098
RightUpLeg  3.22629 -11.2753 -20.979
RightLeg  11.1882 0.201685 0.0278349
RightFoot  2.51522 0.0145883 0.10225
RightToes  -42.3808 -0.237344 -0.338302
Spine  4.60436 -0.707246 -0.546556
Spine1  8.84606 -1.22951 -1.27014
HEad  31.8578 32.2842 -3.55558
LeftShoulder1  0 -2.42657e-020 -4.95415e-022
LeftArm  -40.9693 4.40921 -71.5551
LeftForeArm  60.2558 -16.3741 -2.91947
LeftHand  0.555131 -10.0726 -6.66741
RightShoulder  0 2.42657e-020 1.07489e-018
RightArm  -67.9485 -19.6257 88.5029
RightForeArm  -26.239 67.2097 24.6735
RightHand  1.69805 10.6863 18.3884
LeftUpLeg  -19.8718 16.2135 0.80926
LeftLeg  27.1408 -8.8276 -3.81335
LeftFoot  3.19421 0.0119822 -0.578388
LeftToes  -24.9724 2.01279e-006 2.21547e-008
2
root  -62.9798 32.8931 23.4465 7.65043 52.2852 6.6904
RightUpLeg  4.14506 -11.6995 -21.4906
RightLeg  10.768 -0.713758 -0.0873586
RightFoot  2.81422 0.0168983 0.066386
RightToes  -42.3282 -0.237344 -0.338302
Spine  4.56009 -1.03788 -0.822088
Spine1  8.7441 -1.8939 -1.75614
HEad  31.9693 32.8968 -3.3923
LeftShoulder1  0 -2.42657e-020 -4.95415e-022
LeftArm  -41.3711 4.35468 -71.155
LeftForeArm  59.4641 -16.3281 -2.91244
LeftHand  0.510239 -9.8686 -6.27923
RightShoulder  0 2.42657e-020 1.07489e-018
RightArm  -67.0679 -19.8869 89.6433
RightForeArm  -26.7046 67.3511 24.8524
RightHand  1.81654 11.894 17.6866
LeftUpLeg  -19.7326 14.5666 0.318464
LeftLeg  26.8805 -8.32072 -3.55221
LeftFoot  3.26399 0.0102829 -0.551979
LeftToes  -24.9598 2.01279e-006 2.21547e-008
3
root  -62.9806 32.8617 23.5233 7.92522 53.1469 6.97462
RightUpLeg  5.03314 -14.1936 -22.0931
RightLeg  10.1447 1.09727 0.125613
RightFoot  2.92948 0.00996392 0.174045
RightToes  -43.0715 -0.243473 -0.338303
Spine  4.47872 -1.34335 -0.941624
Spine1  8.55393 -2.53367 -1.89328
HEad  32.1028 33.5579 -3.85948
LeftShoulder1  0 -2.42657e-020 -4.95415e-022
LeftArm  -41.8179 4.48676 -71.0779
LeftForeArm  58.7684 -16.3759 -2.92308
LeftHand  0.538836 -9.92789 -6.57239
RightShoulder  0 2.42657e-020 1.07489e-018
RightArm  -67.7662 -19.3795 90.438
RightForeArm  -25.312 66.8745 24.257
RightHand  1.87156 11.0901 19.482
LeftUpLeg  -20.1165 14.8781 0.22463
LeftLeg  27.416 -9.29264 -4.06439
LeftFoot  3.24274 0.0139605 -0.609133
LeftToes  -24.8692 2.01279e-006 2.21547e-008
4
root  -63.0698 32.8205 23.6617 7.59577 53.1786 6.52382
RightUpLeg  5.47764 -16.2074 -22.2107
RightLeg  9.61043 3.47041 0.361593
RightFoot  2.84839 0.00197379 0.298086
RightToes  -44.3401 -0.254049 -0.338303
Spine  4.45051 -1.22034 -0.969671
Spine1  8.47859 -2.29036 -1.92031
HEad  31.7058 34.3829 -4.07192
LeftShoulder1  0 -2.42657e-020 -4.95415e-022
LeftArm  -41.9238 4.25993 -71.1939
LeftForeArm  58.2985 -16.4179 -2.93213
LeftHand  0.569776 -9.98039 -6.89314
RightShoulder  0 2.42657e-020 1.07489e-018
RightArm  -67.3315 -19.5697 90.6414
RightForeArm  -25.2951 66.6359 23.9628
RightHand  1.87342 11.2027 19.3106
LeftUpLeg  -20.4631 15.8366 0.729283
LeftLeg  28.0609 -10.1211 -4.55665
LeftFoot  3.08071 0.0157417 -0.636815
LeftToes  -25.4357 2.01279e-006 2.21547e-008
5
root  -63.2211 32.7896 23.8374 7.17447 52.8742 5.83209
RightUpLeg  5.49523 -17.4573 -21.8666
RightLeg  9.27503 5.29832 0.519783
RightFoot  2.58231 -0.00251058 0.364639
RightToes  -45.3981 -0.262977 -0.338167
Spine  4.39626 -0.909138 -0.995683
Spine1  8.36473 -1.66342 -1.96392
HEad  30.9681 35.7351 -4.34761
LeftShoulder1  0 -2.42657e-020 -4.95415e-022
LeftArm  -41.4153 4.04595 -71.3408
LeftForeArm  57.9185 -16.4801 -2.94483
LeftHand  0.58127 -10.0864 -6.95423
RightShoulder  0 2.42657e-020 1.07489e-018
RightArm  -67.0488 -19.7286 90.7341
RightForeArm  -25.3999 66.0808 23.3012
RightHand  1.92676 11.5028 19.3377
LeftUpLeg  -20.8168 16.2838 1.49332
LeftLeg  28.5272 -10.2263 -4.70285
LeftFoot  3.00434 0.0156747 -0.635773
LeftToes  -26.0819 2.01279e-006 2.21547e-008
6
root  -63.3988 32.7784 24.0136 6.40412 52.7963 4.90852
RightUpLeg  5.37086 -17.6693 -21.0317
RightLeg  9.47329 5.77807 0.58677
RightFoot  2.22261 -0.00150027 0.345895
RightToes  -45.567 -0.265833 -0.338037
Spine  4.40268 -0.773636 -0.883184
Spine1  8.38153 -1.37941 -1.79051
HEad  30.2983 37.693 -5.04703
LeftShoulder1  0 -2.42657e-020 -4.95415e-022
LeftArm  -41.196 4.12768 -71.7558
LeftForeArm  57.5583 -16.5816 -2.96504
LeftHand  0.584189 -10.1907 -6.9193
RightShoulder  0 2.42657e-020 1.07489e-018
RightArm  -66.4281 -19.6277 90.4934
RightForeArm  -25.753 65.4045 22.535
RightHand  1.95595 11.6231 19.4227
LeftUpLeg  -21.1093 16.2674 2.46275
LeftLeg  29.0423 -10.0735 -4.74285
LeftFoot  3.08434 0.0165015 -0.648623
LeftToes  -26.8746 2.01279e-006 2.21547e-008
7
root  -63.6066 32.7744 24.1981 5.29632 52.8263 3.45102
RightUpLeg  5.15896 -17.042 -19.5182
RightLeg  9.56666 5.23745 0.540714
RightFoot  1.97179 0.00143122 0.294277
RightToes  -45.0806 -0.266842 -0.337912
Spine  4.39589 -0.763672 -0.482442
Spine1  8.38045 -1.36104 -1.07275
HEad  29.6736 40.048 -6.34676
LeftShoulder1  0 -2.42657e-020 -4.95415e-022
LeftArm  -41.766 4.49851 -72.8263
LeftForeArm  57.6902 -16.546 -2.95794
LeftHand  0.594898 -10.3545 -6.93312
RightShoulder  0 2.42657e-020 1.07489e-018
RightArm  -65.1932 -19.4998 89.5656
RightForeArm  -25.7364 65.157 22.2665
RightHand  1.93881 11.5729 19.3398
LeftUpLeg  -21.642 16.0197 3.76626
LeftLeg  29.7276 -9.76653 -4.74282
LeftFoot  3.09608 0.0157565 -0.637045
LeftToes  -27.1855 2.01279e-006 2.21547e-008
8
root  -63.7873 32.7609 24.3942 4.21102 53.2006 2.21469
RightUpLeg  5.73862 -17.6071 -18.4834
RightLeg  8.98893 5.57941 0.51917
RightFoot  1.78476 0.00152381 0.27961
RightToes  -44.555 -0.266369 -0.337788
Spine  4.4145 -0.82789 -0.165959
Spine1  8.44013 -1.47982 -0.541584
HEad  29.0043 41.9133 -7.13021
LeftShoulder1  0 -2.42657e-020 -4.95415e-022
LeftArm  -41.7672 4.88189 -73.6576
LeftForeArm  57.804 -16.5004 -2.94896
LeftHand  0.622901 -10.5083 -7.14038
RightShoulder  0 2.42657e-020 1.07489e-018
RightArm  -63.9932 -19.6548 88.8703
RightForeArm  -25.8578 65.0844 22.1879
RightHand  1.99538 11.9461 19.28
LeftUpLeg  -22.0125 15.5941 4.95583
LeftLeg  30.3607 -9.64215 -4.81459
LeftFoot  3.15994 0.0163382 -0.646085
LeftToes  -27.6363 2.01279e-006 2.21547e-008
9
root  -63.9691 32.7468 24.5926 3.34817 53.3642 1.16698
RightUpLeg  5.96209 -18.4653 -17.6809
RightLeg  8.87134 6.45487 0.58687
RightFoot  1.39906 0.00132818 0.261149
RightToes  -44.6116 -0.264779 -0.337663
Spine  4.38958 -0.837713 0.0506302
Spine1  8.40234 -1.50015 -0.153408
HEad  28.6941 43.2333 -7.1742
LeftShoulder1  0 -2.42657e-020 -4.95415e-022
LeftArm  -41.8889 5.21226 -74.3052
LeftForeArm  58.35 -16.2091 -2.89213
LeftHand  0.667209 -10.8025 -7.42253
RightShoulder  0 2.42657e-020 1.07489e-018
RightArm  -63.6621 -19.8155 88.7328
RightForeArm  -25.6588 65.2387 22.3552
RightHand  2.0054 11.8795 19.4786
LeftUpLeg  -22.3768 15.8097 5.9994
LeftLeg  30.9066 -9.9285 -5.07298
LeftFoot  3.27922 0.0193067 -0.692219
LeftToes  -28.0675 2.01279e-006 2.21547e-008
10
root  -64.1225 32.7303 24.8026 2.31334 53.3954 0.096427
RightUpLeg  6.23057 -18.5412 -16.7412
RightLeg  8.82483 6.61454 0.595908
RightFoot  1.11009 0.00222719 0.223309
RightToes  -45.0689 -0.262436 -0.337535
Spine  4.38219 -0.706841 0.16761
Spine1  8.40952 -1.22832 0.0286817
HEad  28.4347 44.0648 -6.82945
LeftShoulder1  0 -2.42657e-020 -4.95415e-022
LeftArm  -41.4349 5.48633 -74.6065
LeftForeArm  58.6717 -15.9586 -2.8437
LeftHand  0.701825 -10.9357 -7.69675
RightShoulder  0 2.42657e-020 1.07489e-018
RightArm  -63.7329 -20.0335 88.9479
RightForeArm  -25.3725 65.1804 22.2944
RightHand  2.01532 12.0034 19.3753
LeftUpLeg  -22.5297 16.1919 7.10219
LeftLeg  31.4999 -10.2466 -5.36593
LeftFoot  3.34758 0.0219544 -0.733369
LeftToes  -28.6008 2.01279e-006 2.21547e-008
11
root  -64.2146 32.7169 25 1.41519 53.4741 -0.603897
RightUpLeg  6.6648 -18.604 -16.171
RightLeg  8.93376 6.74459 0.620457
RightFoot  0.805263 0.00234329 0.195267
RightToes  -45.0828 -0.259705 -0.3374
Spine  4.39949 -0.860493 0.355682
Spine1  8.439 -1.54517 0.397411
HEad  28.3469 45.3014 -6.97887
LeftShoulder1  0 -2.42657e-020 -4.95415e-022
LeftArm  -42.771 6.22404 -75.3793
LeftForeArm  59.571 -15.5632 -2.76663
LeftHand  0.688313 -10.8416 -7.61866
RightShoulder  0 2.42657e-020 1.07489e-018
RightArm  -62.9915 -19.9769 88.6126
RightForeArm  -25.3997 65.0688 22.1747
RightHand  1.98572 11.926 19.2216
LeftUpLeg  -22.3113 16.3674 7.97371
LeftLeg  31.8248 -10.4738 -5.55789
LeftFoot  3.40578 0.0238336 -0.762574
LeftToes  -29.2173 2.01279e-006 2.21547e-008
12
root  -64.266 32.7254 25.1654 1.03828 53.7067 -0.723991
RightUpLeg  7.26439 -18.7245 -16.0058
RightLeg  8.75616 6.74491 0.599461
RightFoot  0.615476 0.00172625 0.176279
RightToes  -44.9555 -0.256949 -0.337257
Spine  4.35357 -0.991262 0.34649
Spine1  8.34816 -1.80148 0.377288
HEad  28.7303 46.2489 -6.36258
LeftShoulder1  0 -2.42657e-020 -4.95415e-022
LeftArm  -44.1496 6.76455 -75.8388
LeftForeArm  60.5232 -14.7994 -2.62031
LeftHand  0.636878 -10.7857 -7.11323
RightShoulder  0 2.42657e-020 1.07489e-018
RightArm  -63.0326 -20.093 88.8645
RightForeArm  -25.4666 64.7823 21.8721
RightHand  1.98733 11.9002 19.277
LeftUpLeg  -21.9327 16.0805 8.39668
LeftLeg  31.6878 -10.4916 -5.5354
LeftFoot  3.63027 0.0268199 -0.808987
LeftToes  -29.3534 2.01279e-006 2.21547e-008
13
root  -64.2751 32.7484 25.3107 0.878758 53.9543 -0.536735
RightUpLeg  7.9812 -18.6788 -16.0428
RightLeg  8.44564 6.53013 0.544902
RightFoot  0.515312 0.000604242 0.162829
RightToes  -44.5849 -0.254533 -0.337104
Spine  4.26771 -1.02089 0.230095
Spine1  8.18504 -1.85476 0.163266
HEad  29.4514 46.7506 -5.39685
LeftShoulder1  0 -2.42657e-020 -4.95415e-022
LeftArm  -45.018 7.30291 -76.0375
LeftForeArm  61.2739 -14.0945 -2.48647
LeftHand  0.637805 -10.7556 -7.14201
RightShoulder  0 2.42657e-020 1.07489e-018
RightArm  -63.5407 -20.6517 89.6202
RightForeArm  -26.0735 64.8778 21.9674
RightHand  1.90682 11.9567 18.4389
LeftUpLeg  -21.2216 15.6181 8.58199
LeftLeg  31.0564 -10.3999 -5.34372
LeftFoot  3.90183 0.029647 -0.852924
LeftToes  -29.766 2.01279e-006 2.21547e-008
14
root  -64.2702 32.7599 25.4174 0.948371 54.0598 -0.134388
RightUpLeg  8.27572 -18.6223 -16.2438
RightLeg  8.70327 6.4033 0.563316
RightFoot  0.166421 0.000353503 0.133581
RightToes  -44.1938 -0.252822 -0.336936
Spine  4.21349 -1.13552 0.22721
Spine1  8.06737 -2.08955 0.199794
HEad  29.5865 47.5505 -5.69642
LeftShoulder1  0 -2.42657e-020 -4.95415e-022
LeftArm  -46.2816 7.99168 -76.5579
LeftForeArm  62.1584 -13.4872 -2.37129
LeftHand  0.650734 -10.7525 -7.28093
RightShoulder  0 2.42657e-020 1.07489e-018
RightArm  -63.4129 -21.0887 89.6821
RightForeArm  -25.8331 65.1924 22.3039
RightHand  1.88585 12.0061 18.1704
LeftUpLeg  -20.5548 15.3605 8.57452
LeftLeg  30.4501 -10.3617 -5.18794
LeftFoot  4.08864 0.0314408 -0.880803
LeftToes  -29.9329 2.01279e-006 2.21547e-008
15
root  -64.2603 32.7754 25.4934 1.10736 54.0627 0.379487
RightUpLeg  8.36047 -18.428 -16.5187
RightLeg  9.20311 6.24756 0.60453
RightFoot  -0.156054 -0.000373562 0.1037
RightToes  -44.0331 -0.251476 -0.336753
Spine  4.14773 -1.22335 0.162095
Spine1  7.93967 -2.2512 0.0668476
HEad  29.4449 48.4065 -6.05295
LeftShoulder1  0 -2.42657e-020 -4.95415e-022
LeftArm  -47.8154 8.6912 -76.8536
LeftForeArm  63.3676 -12.9674 -2.27211
LeftHand  0.644038 -10.7745 -7.19596
RightShoulder  0 2.42657e-020 1.07489e-018
RightArm  -63.5398 -21.5569 89.9076
RightForeArm  -25.8417 65.2738 22.3918
RightHand  1.909 12.0474 18.3241
LeftUpLeg  -19.8584 15.2695 8.46176
LeftLeg  29.8107 -10.3881 -5.05819
LeftFoot  4.335 0.0350371 -0.925719
LeftToes  -30.2689 2.01279e-006 2.21547e-008
